<svg id="Capa_1" data-name="Capa 1" xmlns="http://www.w3.org/2000/svg" viewBox="0 0 600 180"><defs><style>.cls-1{fill:#a30c00;}.cls-2{font-size:105.09px;font-family:Gabriola;}.cls-2,.cls-4{fill:#121212;}.cls-3{letter-spacing:-0.06em;}.cls-4{font-size:26.46px;font-family:Microsoft-Yi-Baiti, Microsoft Yi Baiti;font-style:italic;}</style></defs><title>Logotipo negro 3</title><path class="cls-1" d="M110.43,149.3a98.06,98.06,0,0,1,20.85-14.61,83.24,83.24,0,0,1,24.29-8.29,75.17,75.17,0,0,1,12.9-1.24,91.57,91.57,0,0,1,12.93,1c2.15.26,4.24.7,6.36,1.07s4.19.88,6.25,1.37c4.15,1,8.24,1.93,12.35,2.81a125.13,125.13,0,0,0,24.66,3,98.19,98.19,0,0,0,12.36-.71,115,115,0,0,0,12.21-2.12c16.19-3.64,31.55-10.6,46.47-18.68a116.71,116.71,0,0,1-45.34,23.4,100.08,100.08,0,0,1-25.75,3,118.65,118.65,0,0,1-25.61-3.35c-8.33-1.94-16.42-4.35-24.6-5.76a86.71,86.71,0,0,0-12.33-1.33,82.77,82.77,0,0,0-12.38.71,75,75,0,0,0-12.2,2.56,91.14,91.14,0,0,0-11.77,4.3A110,110,0,0,0,110.43,149.3Z"/><path class="cls-1" d="M397.86,71.82A98.46,98.46,0,0,1,418.71,57.2,83.41,83.41,0,0,1,443,48.92a75.17,75.17,0,0,1,12.9-1.24,90.1,90.1,0,0,1,12.93,1c2.14.26,4.24.7,6.36,1.08s4.19.87,6.25,1.36c4.15,1,8.24,1.93,12.35,2.81a123.56,123.56,0,0,0,24.66,3,98.19,98.19,0,0,0,12.36-.71A115,115,0,0,0,543,54.05c16.19-3.65,31.55-10.6,46.47-18.68a116.52,116.52,0,0,1-45.35,23.39,99.53,99.53,0,0,1-25.74,3,119.28,119.28,0,0,1-25.61-3.36c-8.33-1.93-16.42-4.34-24.6-5.75a86.71,86.71,0,0,0-12.33-1.33,81.46,81.46,0,0,0-12.38.71,74.93,74.93,0,0,0-12.2,2.55,92.66,92.66,0,0,0-11.77,4.3A110.5,110.5,0,0,0,397.86,71.82Z"/><text class="cls-2" transform="translate(5.82 117.08)">Milanis<tspan class="cls-3" x="241.48" y="0">’</tspan><tspan x="251.08" y="0">s Boutique</tspan></text><text class="cls-4" transform="translate(343.81 141.71)">Style for less</text></svg>