<svg id="Capa_1" data-name="Capa 1" xmlns="http://www.w3.org/2000/svg" viewBox="0 0 600 180"><defs><style>.cls-1,.cls-2,.cls-4{fill:#f1f1f1;}.cls-2{font-size:104.83px;font-family:Gabriola;}.cls-3{letter-spacing:-0.06em;}.cls-4{font-size:26.39px;font-family:Microsoft-Yi-Baiti, Microsoft Yi Baiti;font-style:italic;}</style></defs><title>Logotipo blanco 3</title><path class="cls-1" d="M111.42,145.17a97.61,97.61,0,0,1,20.8-14.58,83.13,83.13,0,0,1,24.23-8.27,74.82,74.82,0,0,1,12.87-1.24,91.15,91.15,0,0,1,12.9,1c2.14.26,4.23.69,6.34,1.07s4.18.87,6.24,1.36c4.14,1,8.22,1.93,12.31,2.8a123.87,123.87,0,0,0,24.61,3,95.83,95.83,0,0,0,12.32-.71,112,112,0,0,0,12.18-2.11c16.15-3.63,31.47-10.56,46.36-18.62a116.27,116.27,0,0,1-45.23,23.34,99.55,99.55,0,0,1-25.68,3,118.89,118.89,0,0,1-25.56-3.35c-8.3-1.93-16.38-4.33-24.53-5.74a87.93,87.93,0,0,0-12.3-1.33,82.37,82.37,0,0,0-12.35.71A75,75,0,0,0,144.76,128,90.69,90.69,0,0,0,133,132.26,109.75,109.75,0,0,0,111.42,145.17Z"/><path class="cls-1" d="M398.14,67.88a97.61,97.61,0,0,1,20.8-14.58A83.13,83.13,0,0,1,443.17,45,74.82,74.82,0,0,1,456,43.79a92.39,92.39,0,0,1,12.89,1c2.15.26,4.24.7,6.35,1.08s4.18.87,6.24,1.36c4.14,1,8.22,1.92,12.31,2.8a123.86,123.86,0,0,0,24.6,3,97.71,97.71,0,0,0,12.33-.71,112,112,0,0,0,12.18-2.11c16.15-3.63,31.47-10.56,46.36-18.63a116.23,116.23,0,0,1-45.23,23.35,99.55,99.55,0,0,1-25.68,3,119.53,119.53,0,0,1-25.56-3.35c-8.3-1.93-16.38-4.33-24.53-5.74A86.46,86.46,0,0,0,456,47.42a82.37,82.37,0,0,0-12.35.71,74.8,74.8,0,0,0-12.17,2.55A92.14,92.14,0,0,0,419.74,55,110.29,110.29,0,0,0,398.14,67.88Z"/><text class="cls-2" transform="translate(7.07 113.03)">Milanis<tspan class="cls-3" x="240.89" y="0">’</tspan><tspan x="250.46" y="0">s Boutique</tspan></text><text class="cls-4" transform="translate(344.22 137.59)">Style for less</text></svg>