<svg id="Capa_1" data-name="Capa 1" xmlns="http://www.w3.org/2000/svg" viewBox="0 0 579.74 150.16"><defs><style>.cls-1{fill:#a30c00;}.cls-2{font-size:100.06px;fill:#121212;font-family:Gabriola;}.cls-3{letter-spacing:-0.06em;}</style></defs><title>Logotipo negro 2</title><path class="cls-1" d="M108.6,129.62a93.17,93.17,0,0,1,19.82-14,79.37,79.37,0,0,1,23.14-7.92,71.18,71.18,0,0,1,12.29-1.2,87.42,87.42,0,0,1,12.33.91c2,.25,4,.67,6.06,1s4,.83,6,1.29c4,.91,7.85,1.84,11.75,2.67a118.32,118.32,0,0,0,23.46,2.83,92.28,92.28,0,0,0,11.75-.68,108.77,108.77,0,0,0,11.61-2c15.4-3.45,30-10,44.28-17.67a110.08,110.08,0,0,1-43.15,22.39,95.16,95.16,0,0,1-24.54,2.85A114,114,0,0,1,199,117c-7.93-1.84-15.63-4.14-23.41-5.49a82.67,82.67,0,0,0-11.73-1.28,78.68,78.68,0,0,0-11.77.67,70.25,70.25,0,0,0-11.61,2.42,86.67,86.67,0,0,0-11.2,4.07A105.22,105.22,0,0,0,108.6,129.62Z"/><path class="cls-1" d="M382.26,55.85a93.17,93.17,0,0,1,19.82-14A79.69,79.69,0,0,1,425.22,34a72.17,72.17,0,0,1,12.29-1.19,87.42,87.42,0,0,1,12.33.91c2,.25,4,.67,6.06,1s4,.83,6,1.3c3.95.9,7.85,1.83,11.75,2.67a118.32,118.32,0,0,0,23.46,2.83,92.28,92.28,0,0,0,11.75-.68,108.77,108.77,0,0,0,11.61-2c15.4-3.45,30-10,44.28-17.67a110.21,110.21,0,0,1-43.15,22.39A95.15,95.15,0,0,1,497,46.38a113.33,113.33,0,0,1-24.41-3.2C464.68,41.33,457,39,449.2,37.69a82.67,82.67,0,0,0-11.73-1.28,77.38,77.38,0,0,0-11.77.67,71.26,71.26,0,0,0-11.61,2.41,86.72,86.72,0,0,0-11.2,4.08A105.22,105.22,0,0,0,382.26,55.85Z"/><text class="cls-2" transform="translate(9 98.95)">Milanis<tspan class="cls-3" x="229.92" y="0">’</tspan><tspan x="239.05" y="0">s Boutique</tspan></text></svg>